<mxfile host="app.diagrams.net" modified="2024-01-12T05:04:14.887Z" agent="Mozilla/5.0 (Windows NT 10.0; Win64; x64) AppleWebKit/537.36 (KHTML, like Gecko) Chrome/120.0.0.0 Safari/537.36 Edg/120.0.0.0" etag="m-1CYOGd14OpVqEfUe-W" version="22.1.18" type="github">
  <diagram id="prtHgNgQTEPvFCAcTncT" name="Page-1">
    <mxGraphModel dx="1655" dy="847" grid="1" gridSize="10" guides="1" tooltips="1" connect="1" arrows="1" fold="1" page="1" pageScale="1" pageWidth="827" pageHeight="1169" math="0" shadow="0">
      <root>
        <mxCell id="0" />
        <mxCell id="1" parent="0" />
        <mxCell id="UotE7CJrFkmpILPnAZ5Y-2" value="找回密码" style="swimlane;childLayout=stackLayout;resizeParent=1;resizeParentMax=0;startSize=20;html=1;" parent="1" vertex="1">
          <mxGeometry x="130.00000000000045" y="120" width="620" height="1160" as="geometry" />
        </mxCell>
        <mxCell id="UotE7CJrFkmpILPnAZ5Y-3" value="用户" style="swimlane;startSize=20;html=1;" parent="UotE7CJrFkmpILPnAZ5Y-2" vertex="1">
          <mxGeometry y="20" width="300" height="1140" as="geometry" />
        </mxCell>
        <mxCell id="UotE7CJrFkmpILPnAZ5Y-6" value="" style="ellipse;html=1;shape=startState;fillColor=#000000;strokeColor=#ff0000;" parent="UotE7CJrFkmpILPnAZ5Y-3" vertex="1">
          <mxGeometry x="134.99999999999955" y="30" width="30" height="30" as="geometry" />
        </mxCell>
        <mxCell id="UotE7CJrFkmpILPnAZ5Y-9" value="" style="edgeStyle=orthogonalEdgeStyle;html=1;verticalAlign=bottom;endArrow=open;endSize=8;strokeColor=#ff0000;rounded=0;" parent="UotE7CJrFkmpILPnAZ5Y-3" source="UotE7CJrFkmpILPnAZ5Y-6" edge="1">
          <mxGeometry relative="1" as="geometry">
            <mxPoint x="149.99999999999955" y="90" as="targetPoint" />
            <mxPoint x="280.00000000000045" y="200" as="sourcePoint" />
          </mxGeometry>
        </mxCell>
        <mxCell id="UotE7CJrFkmpILPnAZ5Y-8" value="进入密码找回页面" style="rounded=1;whiteSpace=wrap;html=1;shadow=0;comic=0;labelBackgroundColor=none;strokeWidth=1;fontFamily=Verdana;fontSize=12;align=center;arcSize=50;" parent="UotE7CJrFkmpILPnAZ5Y-3" vertex="1">
          <mxGeometry x="107.49999999999955" y="90" width="85" height="30" as="geometry" />
        </mxCell>
        <mxCell id="UotE7CJrFkmpILPnAZ5Y-4" value="账号管理子系统" style="swimlane;startSize=20;html=1;" parent="UotE7CJrFkmpILPnAZ5Y-2" vertex="1">
          <mxGeometry x="300" y="20" width="320" height="1140" as="geometry" />
        </mxCell>
        <mxCell id="UotE7CJrFkmpILPnAZ5Y-14" value="点击提交" style="rounded=1;whiteSpace=wrap;html=1;shadow=0;comic=0;labelBackgroundColor=none;strokeWidth=1;fontFamily=Verdana;fontSize=12;align=center;arcSize=50;" parent="UotE7CJrFkmpILPnAZ5Y-4" vertex="1">
          <mxGeometry x="-192.50000000000045" y="498" width="85" height="30" as="geometry" />
        </mxCell>
        <mxCell id="UotE7CJrFkmpILPnAZ5Y-47" value="输入验证码" style="rounded=1;whiteSpace=wrap;html=1;shadow=0;comic=0;labelBackgroundColor=none;strokeWidth=1;fontFamily=Verdana;fontSize=12;align=center;arcSize=50;" parent="UotE7CJrFkmpILPnAZ5Y-4" vertex="1">
          <mxGeometry x="-192.50000000000045" y="658" width="85" height="30" as="geometry" />
        </mxCell>
        <mxCell id="UotE7CJrFkmpILPnAZ5Y-48" value="点击提交" style="rounded=1;whiteSpace=wrap;html=1;shadow=0;comic=0;labelBackgroundColor=none;strokeWidth=1;fontFamily=Verdana;fontSize=12;align=center;arcSize=50;" parent="UotE7CJrFkmpILPnAZ5Y-4" vertex="1">
          <mxGeometry x="-192.50000000000045" y="748" width="85" height="30" as="geometry" />
        </mxCell>
        <mxCell id="UotE7CJrFkmpILPnAZ5Y-17" style="edgeStyle=orthogonalEdgeStyle;rounded=0;orthogonalLoop=1;jettySize=auto;html=1;entryX=0;entryY=0.5;entryDx=0;entryDy=0;" parent="UotE7CJrFkmpILPnAZ5Y-4" source="UotE7CJrFkmpILPnAZ5Y-14" target="UotE7CJrFkmpILPnAZ5Y-16" edge="1">
          <mxGeometry relative="1" as="geometry" />
        </mxCell>
        <mxCell id="UotE7CJrFkmpILPnAZ5Y-49" style="edgeStyle=orthogonalEdgeStyle;rounded=0;orthogonalLoop=1;jettySize=auto;html=1;" parent="UotE7CJrFkmpILPnAZ5Y-4" source="UotE7CJrFkmpILPnAZ5Y-44" target="UotE7CJrFkmpILPnAZ5Y-47" edge="1">
          <mxGeometry relative="1" as="geometry" />
        </mxCell>
        <mxCell id="UotE7CJrFkmpILPnAZ5Y-50" style="edgeStyle=orthogonalEdgeStyle;rounded=0;orthogonalLoop=1;jettySize=auto;html=1;entryX=0.5;entryY=0;entryDx=0;entryDy=0;" parent="UotE7CJrFkmpILPnAZ5Y-4" source="UotE7CJrFkmpILPnAZ5Y-47" target="UotE7CJrFkmpILPnAZ5Y-48" edge="1">
          <mxGeometry relative="1" as="geometry" />
        </mxCell>
        <mxCell id="UotE7CJrFkmpILPnAZ5Y-51" style="edgeStyle=orthogonalEdgeStyle;rounded=0;orthogonalLoop=1;jettySize=auto;html=1;entryX=0;entryY=0.5;entryDx=0;entryDy=0;" parent="UotE7CJrFkmpILPnAZ5Y-4" source="UotE7CJrFkmpILPnAZ5Y-48" target="UotE7CJrFkmpILPnAZ5Y-38" edge="1">
          <mxGeometry relative="1" as="geometry" />
        </mxCell>
        <mxCell id="UotE7CJrFkmpILPnAZ5Y-19" style="edgeStyle=orthogonalEdgeStyle;rounded=0;orthogonalLoop=1;jettySize=auto;html=1;" parent="UotE7CJrFkmpILPnAZ5Y-4" source="UotE7CJrFkmpILPnAZ5Y-16" target="UotE7CJrFkmpILPnAZ5Y-18" edge="1">
          <mxGeometry relative="1" as="geometry" />
        </mxCell>
        <mxCell id="UotE7CJrFkmpILPnAZ5Y-36" style="edgeStyle=orthogonalEdgeStyle;rounded=0;orthogonalLoop=1;jettySize=auto;html=1;entryX=0.5;entryY=0;entryDx=0;entryDy=0;" parent="UotE7CJrFkmpILPnAZ5Y-4" edge="1">
          <mxGeometry relative="1" as="geometry">
            <mxPoint x="211.99999999999955" y="538.7812499999998" as="sourcePoint" />
            <mxPoint x="66.99999999999955" y="588" as="targetPoint" />
            <Array as="points">
              <mxPoint x="212" y="548" />
              <mxPoint x="67" y="548" />
            </Array>
          </mxGeometry>
        </mxCell>
        <mxCell id="UotE7CJrFkmpILPnAZ5Y-16" value="验证回答" style="rhombus;whiteSpace=wrap;html=1;" parent="UotE7CJrFkmpILPnAZ5Y-4" vertex="1">
          <mxGeometry x="172.5" y="485.5" width="80" height="55" as="geometry" />
        </mxCell>
        <mxCell id="UotE7CJrFkmpILPnAZ5Y-22" style="edgeStyle=orthogonalEdgeStyle;rounded=0;orthogonalLoop=1;jettySize=auto;html=1;" parent="UotE7CJrFkmpILPnAZ5Y-4" source="UotE7CJrFkmpILPnAZ5Y-18" target="UotE7CJrFkmpILPnAZ5Y-21" edge="1">
          <mxGeometry relative="1" as="geometry" />
        </mxCell>
        <mxCell id="UotE7CJrFkmpILPnAZ5Y-18" value="提示验证成功" style="rounded=1;whiteSpace=wrap;html=1;shadow=0;comic=0;labelBackgroundColor=none;strokeWidth=1;fontFamily=Verdana;fontSize=12;align=center;arcSize=50;" parent="UotE7CJrFkmpILPnAZ5Y-4" vertex="1">
          <mxGeometry x="169.99999999999955" y="748" width="85" height="30" as="geometry" />
        </mxCell>
        <mxCell id="UotE7CJrFkmpILPnAZ5Y-20" value="回答验证成功" style="text;html=1;strokeColor=none;fillColor=none;align=center;verticalAlign=middle;whiteSpace=wrap;rounded=0;" parent="UotE7CJrFkmpILPnAZ5Y-4" vertex="1">
          <mxGeometry x="214" y="563" width="80" height="30" as="geometry" />
        </mxCell>
        <mxCell id="UotE7CJrFkmpILPnAZ5Y-24" style="edgeStyle=orthogonalEdgeStyle;rounded=0;orthogonalLoop=1;jettySize=auto;html=1;" parent="UotE7CJrFkmpILPnAZ5Y-4" source="UotE7CJrFkmpILPnAZ5Y-21" target="UotE7CJrFkmpILPnAZ5Y-23" edge="1">
          <mxGeometry relative="1" as="geometry" />
        </mxCell>
        <mxCell id="UotE7CJrFkmpILPnAZ5Y-21" value="输入新密码" style="rounded=1;whiteSpace=wrap;html=1;shadow=0;comic=0;labelBackgroundColor=none;strokeWidth=1;fontFamily=Verdana;fontSize=12;align=center;arcSize=50;" parent="UotE7CJrFkmpILPnAZ5Y-4" vertex="1">
          <mxGeometry x="169.99999999999955" y="818" width="85" height="30" as="geometry" />
        </mxCell>
        <mxCell id="UotE7CJrFkmpILPnAZ5Y-25" style="edgeStyle=orthogonalEdgeStyle;rounded=0;orthogonalLoop=1;jettySize=auto;html=1;entryX=1;entryY=0.25;entryDx=0;entryDy=0;" parent="UotE7CJrFkmpILPnAZ5Y-4" source="UotE7CJrFkmpILPnAZ5Y-23" target="UotE7CJrFkmpILPnAZ5Y-21" edge="1">
          <mxGeometry relative="1" as="geometry">
            <Array as="points">
              <mxPoint x="300" y="903" />
              <mxPoint x="300" y="826" />
            </Array>
          </mxGeometry>
        </mxCell>
        <mxCell id="UotE7CJrFkmpILPnAZ5Y-31" style="edgeStyle=orthogonalEdgeStyle;rounded=0;orthogonalLoop=1;jettySize=auto;html=1;" parent="UotE7CJrFkmpILPnAZ5Y-4" source="UotE7CJrFkmpILPnAZ5Y-23" target="UotE7CJrFkmpILPnAZ5Y-29" edge="1">
          <mxGeometry relative="1" as="geometry" />
        </mxCell>
        <mxCell id="UotE7CJrFkmpILPnAZ5Y-23" value="&lt;font style=&quot;font-size: 10px;&quot;&gt;验证新密码&lt;br&gt;合法性&lt;/font&gt;" style="rhombus;whiteSpace=wrap;html=1;" parent="UotE7CJrFkmpILPnAZ5Y-4" vertex="1">
          <mxGeometry x="172.5" y="878" width="80" height="50" as="geometry" />
        </mxCell>
        <mxCell id="UotE7CJrFkmpILPnAZ5Y-26" value="信息不合法" style="text;html=1;strokeColor=none;fillColor=none;align=center;verticalAlign=middle;whiteSpace=wrap;rounded=0;" parent="UotE7CJrFkmpILPnAZ5Y-4" vertex="1">
          <mxGeometry x="248.99999999999955" y="881" width="70" height="30" as="geometry" />
        </mxCell>
        <mxCell id="UotE7CJrFkmpILPnAZ5Y-34" style="edgeStyle=orthogonalEdgeStyle;rounded=0;orthogonalLoop=1;jettySize=auto;html=1;" parent="UotE7CJrFkmpILPnAZ5Y-4" source="UotE7CJrFkmpILPnAZ5Y-29" target="UotE7CJrFkmpILPnAZ5Y-33" edge="1">
          <mxGeometry relative="1" as="geometry" />
        </mxCell>
        <mxCell id="UotE7CJrFkmpILPnAZ5Y-29" value="保存新密码" style="rounded=1;whiteSpace=wrap;html=1;shadow=0;comic=0;labelBackgroundColor=none;strokeWidth=1;fontFamily=Verdana;fontSize=12;align=center;arcSize=50;" parent="UotE7CJrFkmpILPnAZ5Y-4" vertex="1">
          <mxGeometry x="169.99999999999955" y="968" width="85" height="30" as="geometry" />
        </mxCell>
        <mxCell id="UotE7CJrFkmpILPnAZ5Y-32" value="信息合法" style="text;html=1;strokeColor=none;fillColor=none;align=center;verticalAlign=middle;whiteSpace=wrap;rounded=0;" parent="UotE7CJrFkmpILPnAZ5Y-4" vertex="1">
          <mxGeometry x="154.99999999999955" y="938" width="60" height="30" as="geometry" />
        </mxCell>
        <mxCell id="UotE7CJrFkmpILPnAZ5Y-33" value="" style="ellipse;html=1;shape=endState;fillColor=#000000;strokeColor=#ff0000;" parent="UotE7CJrFkmpILPnAZ5Y-4" vertex="1">
          <mxGeometry x="197.49999999999955" y="1028" width="30" height="30" as="geometry" />
        </mxCell>
        <mxCell id="UotE7CJrFkmpILPnAZ5Y-46" style="edgeStyle=orthogonalEdgeStyle;rounded=0;orthogonalLoop=1;jettySize=auto;html=1;exitX=0.5;exitY=1;exitDx=0;exitDy=0;entryX=0.5;entryY=0;entryDx=0;entryDy=0;" parent="UotE7CJrFkmpILPnAZ5Y-4" source="UotE7CJrFkmpILPnAZ5Y-35" target="UotE7CJrFkmpILPnAZ5Y-44" edge="1">
          <mxGeometry relative="1" as="geometry" />
        </mxCell>
        <mxCell id="UotE7CJrFkmpILPnAZ5Y-35" value="提示验证失败" style="rounded=1;whiteSpace=wrap;html=1;shadow=0;comic=0;labelBackgroundColor=none;strokeWidth=1;fontFamily=Verdana;fontSize=12;align=center;arcSize=50;" parent="UotE7CJrFkmpILPnAZ5Y-4" vertex="1">
          <mxGeometry x="22.499999999999545" y="588" width="85" height="30" as="geometry" />
        </mxCell>
        <mxCell id="UotE7CJrFkmpILPnAZ5Y-37" value="回答验证失败" style="text;html=1;strokeColor=none;fillColor=none;align=center;verticalAlign=middle;whiteSpace=wrap;rounded=0;" parent="UotE7CJrFkmpILPnAZ5Y-4" vertex="1">
          <mxGeometry x="121.49999999999955" y="524" width="80" height="30" as="geometry" />
        </mxCell>
        <mxCell id="UotE7CJrFkmpILPnAZ5Y-41" style="edgeStyle=orthogonalEdgeStyle;rounded=0;orthogonalLoop=1;jettySize=auto;html=1;entryX=0;entryY=0.5;entryDx=0;entryDy=0;" parent="UotE7CJrFkmpILPnAZ5Y-4" source="UotE7CJrFkmpILPnAZ5Y-38" target="UotE7CJrFkmpILPnAZ5Y-18" edge="1">
          <mxGeometry relative="1" as="geometry" />
        </mxCell>
        <mxCell id="UotE7CJrFkmpILPnAZ5Y-38" value="SMS验证" style="rhombus;whiteSpace=wrap;html=1;" parent="UotE7CJrFkmpILPnAZ5Y-4" vertex="1">
          <mxGeometry x="25" y="738" width="80" height="50" as="geometry" />
        </mxCell>
        <mxCell id="UotE7CJrFkmpILPnAZ5Y-40" value="验证成功" style="text;html=1;strokeColor=none;fillColor=none;align=center;verticalAlign=middle;whiteSpace=wrap;rounded=0;" parent="UotE7CJrFkmpILPnAZ5Y-4" vertex="1">
          <mxGeometry x="104.99999999999955" y="738" width="60" height="30" as="geometry" />
        </mxCell>
        <mxCell id="UotE7CJrFkmpILPnAZ5Y-44" value="发送手机验证码" style="rounded=1;whiteSpace=wrap;html=1;shadow=0;comic=0;labelBackgroundColor=none;strokeWidth=1;fontFamily=Verdana;fontSize=12;align=center;arcSize=50;" parent="UotE7CJrFkmpILPnAZ5Y-4" vertex="1">
          <mxGeometry x="22.499999999999545" y="658" width="85" height="30" as="geometry" />
        </mxCell>
        <mxCell id="UotE7CJrFkmpILPnAZ5Y-52" value="提示账号找回失败" style="rounded=1;whiteSpace=wrap;html=1;shadow=0;comic=0;labelBackgroundColor=none;strokeWidth=1;fontFamily=Verdana;fontSize=12;align=center;arcSize=50;" parent="UotE7CJrFkmpILPnAZ5Y-4" vertex="1">
          <mxGeometry x="10" y="828" width="108" height="30" as="geometry" />
        </mxCell>
        <mxCell id="UotE7CJrFkmpILPnAZ5Y-56" style="edgeStyle=orthogonalEdgeStyle;rounded=0;orthogonalLoop=1;jettySize=auto;html=1;exitX=0.5;exitY=1;exitDx=0;exitDy=0;entryX=0.513;entryY=0.152;entryDx=0;entryDy=0;entryPerimeter=0;" parent="UotE7CJrFkmpILPnAZ5Y-4" source="UotE7CJrFkmpILPnAZ5Y-38" target="UotE7CJrFkmpILPnAZ5Y-52" edge="1">
          <mxGeometry relative="1" as="geometry" />
        </mxCell>
        <mxCell id="UotE7CJrFkmpILPnAZ5Y-60" value="" style="edgeStyle=orthogonalEdgeStyle;rounded=0;orthogonalLoop=1;jettySize=auto;html=1;exitX=0.5;exitY=1;exitDx=0;exitDy=0;" parent="UotE7CJrFkmpILPnAZ5Y-4" source="UotE7CJrFkmpILPnAZ5Y-52" edge="1">
          <mxGeometry relative="1" as="geometry">
            <mxPoint x="494.00000000000045" y="998" as="sourcePoint" />
            <mxPoint x="63.999999999999545" y="888" as="targetPoint" />
          </mxGeometry>
        </mxCell>
        <mxCell id="UotE7CJrFkmpILPnAZ5Y-61" value="" style="ellipse;html=1;shape=endState;fillColor=#000000;strokeColor=#ff0000;" parent="UotE7CJrFkmpILPnAZ5Y-4" vertex="1">
          <mxGeometry x="48.999999999999545" y="888" width="30" height="30" as="geometry" />
        </mxCell>
        <mxCell id="SxeqwAiPrsJu27z6cItR-1" value="验证失败" style="text;html=1;strokeColor=none;fillColor=none;align=center;verticalAlign=middle;whiteSpace=wrap;rounded=0;" parent="UotE7CJrFkmpILPnAZ5Y-4" vertex="1">
          <mxGeometry x="61.499999999999545" y="788" width="60" height="30" as="geometry" />
        </mxCell>
        <mxCell id="Y9u5goFJSIaas9usRY1G-2" value="输入手机号" style="rounded=1;whiteSpace=wrap;html=1;shadow=0;comic=0;labelBackgroundColor=none;strokeWidth=1;fontFamily=Verdana;fontSize=12;align=center;arcSize=50;" vertex="1" parent="UotE7CJrFkmpILPnAZ5Y-4">
          <mxGeometry x="-192.50000000000045" y="160" width="85" height="30" as="geometry" />
        </mxCell>
        <mxCell id="Y9u5goFJSIaas9usRY1G-3" value="点击提交" style="rounded=1;whiteSpace=wrap;html=1;shadow=0;comic=0;labelBackgroundColor=none;strokeWidth=1;fontFamily=Verdana;fontSize=12;align=center;arcSize=50;" vertex="1" parent="UotE7CJrFkmpILPnAZ5Y-4">
          <mxGeometry x="-192.50000000000045" y="228" width="85" height="30" as="geometry" />
        </mxCell>
        <mxCell id="Y9u5goFJSIaas9usRY1G-1" style="edgeStyle=orthogonalEdgeStyle;rounded=0;orthogonalLoop=1;jettySize=auto;html=1;exitX=0.5;exitY=1;exitDx=0;exitDy=0;" edge="1" parent="UotE7CJrFkmpILPnAZ5Y-4" source="Y9u5goFJSIaas9usRY1G-2" target="Y9u5goFJSIaas9usRY1G-3">
          <mxGeometry relative="1" as="geometry" />
        </mxCell>
        <mxCell id="Y9u5goFJSIaas9usRY1G-5" style="edgeStyle=orthogonalEdgeStyle;rounded=0;orthogonalLoop=1;jettySize=auto;html=1;exitX=0.5;exitY=1;exitDx=0;exitDy=0;entryX=1;entryY=0.5;entryDx=0;entryDy=0;" edge="1" parent="UotE7CJrFkmpILPnAZ5Y-4" target="Y9u5goFJSIaas9usRY1G-12">
          <mxGeometry relative="1" as="geometry">
            <mxPoint x="215" y="271.5" as="sourcePoint" />
            <Array as="points">
              <mxPoint x="215" y="306" />
            </Array>
          </mxGeometry>
        </mxCell>
        <mxCell id="Y9u5goFJSIaas9usRY1G-6" value="手机号是否已注册" style="rhombus;whiteSpace=wrap;html=1;" vertex="1" parent="UotE7CJrFkmpILPnAZ5Y-4">
          <mxGeometry x="160" y="216" width="110" height="55" as="geometry" />
        </mxCell>
        <mxCell id="Y9u5goFJSIaas9usRY1G-7" value="手机号已注册" style="text;html=1;strokeColor=none;fillColor=none;align=center;verticalAlign=middle;whiteSpace=wrap;rounded=0;" vertex="1" parent="UotE7CJrFkmpILPnAZ5Y-4">
          <mxGeometry x="130" y="280" width="90" height="30" as="geometry" />
        </mxCell>
        <mxCell id="Y9u5goFJSIaas9usRY1G-12" value="显示安全问题" style="rounded=1;whiteSpace=wrap;html=1;shadow=0;comic=0;labelBackgroundColor=none;strokeWidth=1;fontFamily=Verdana;fontSize=12;align=center;arcSize=50;" vertex="1" parent="UotE7CJrFkmpILPnAZ5Y-4">
          <mxGeometry x="22.499999999999545" y="291" width="85" height="30" as="geometry" />
        </mxCell>
        <mxCell id="Y9u5goFJSIaas9usRY1G-13" style="edgeStyle=orthogonalEdgeStyle;rounded=0;orthogonalLoop=1;jettySize=auto;html=1;entryX=0;entryY=0.5;entryDx=0;entryDy=0;" edge="1" parent="UotE7CJrFkmpILPnAZ5Y-4" source="Y9u5goFJSIaas9usRY1G-3" target="Y9u5goFJSIaas9usRY1G-6">
          <mxGeometry relative="1" as="geometry" />
        </mxCell>
        <mxCell id="Y9u5goFJSIaas9usRY1G-15" style="edgeStyle=orthogonalEdgeStyle;rounded=0;orthogonalLoop=1;jettySize=auto;html=1;exitX=0.5;exitY=1;exitDx=0;exitDy=0;" edge="1" parent="UotE7CJrFkmpILPnAZ5Y-4" source="Y9u5goFJSIaas9usRY1G-6">
          <mxGeometry relative="1" as="geometry">
            <mxPoint x="214.99999999999955" y="340" as="targetPoint" />
          </mxGeometry>
        </mxCell>
        <mxCell id="Y9u5goFJSIaas9usRY1G-18" value="" style="ellipse;html=1;shape=endState;fillColor=#000000;strokeColor=#ff0000;" vertex="1" parent="UotE7CJrFkmpILPnAZ5Y-4">
          <mxGeometry x="200.49999999999955" y="410" width="30" height="30" as="geometry" />
        </mxCell>
        <mxCell id="Y9u5goFJSIaas9usRY1G-21" style="edgeStyle=orthogonalEdgeStyle;rounded=0;orthogonalLoop=1;jettySize=auto;html=1;entryX=0.5;entryY=0;entryDx=0;entryDy=0;" edge="1" parent="UotE7CJrFkmpILPnAZ5Y-4" source="Y9u5goFJSIaas9usRY1G-19" target="Y9u5goFJSIaas9usRY1G-18">
          <mxGeometry relative="1" as="geometry" />
        </mxCell>
        <mxCell id="Y9u5goFJSIaas9usRY1G-19" value="提醒用户注册" style="rounded=1;whiteSpace=wrap;html=1;shadow=0;comic=0;labelBackgroundColor=none;strokeWidth=1;fontFamily=Verdana;fontSize=12;align=center;arcSize=50;" vertex="1" parent="UotE7CJrFkmpILPnAZ5Y-4">
          <mxGeometry x="172.49999999999955" y="340" width="85" height="30" as="geometry" />
        </mxCell>
        <mxCell id="Y9u5goFJSIaas9usRY1G-14" style="edgeStyle=orthogonalEdgeStyle;rounded=0;orthogonalLoop=1;jettySize=auto;html=1;" edge="1" parent="UotE7CJrFkmpILPnAZ5Y-2" source="UotE7CJrFkmpILPnAZ5Y-8" target="Y9u5goFJSIaas9usRY1G-2">
          <mxGeometry relative="1" as="geometry" />
        </mxCell>
        <mxCell id="UotE7CJrFkmpILPnAZ5Y-12" value="输入回答" style="rounded=1;whiteSpace=wrap;html=1;shadow=0;comic=0;labelBackgroundColor=none;strokeWidth=1;fontFamily=Verdana;fontSize=12;align=center;arcSize=50;" parent="1" vertex="1">
          <mxGeometry x="237.5" y="560" width="85" height="30" as="geometry" />
        </mxCell>
        <mxCell id="UotE7CJrFkmpILPnAZ5Y-15" style="edgeStyle=orthogonalEdgeStyle;rounded=0;orthogonalLoop=1;jettySize=auto;html=1;" parent="1" source="UotE7CJrFkmpILPnAZ5Y-12" target="UotE7CJrFkmpILPnAZ5Y-14" edge="1">
          <mxGeometry relative="1" as="geometry" />
        </mxCell>
        <mxCell id="Y9u5goFJSIaas9usRY1G-16" style="edgeStyle=orthogonalEdgeStyle;rounded=0;orthogonalLoop=1;jettySize=auto;html=1;entryX=0.5;entryY=0;entryDx=0;entryDy=0;" edge="1" parent="1" source="Y9u5goFJSIaas9usRY1G-12" target="UotE7CJrFkmpILPnAZ5Y-12">
          <mxGeometry relative="1" as="geometry" />
        </mxCell>
      </root>
    </mxGraphModel>
  </diagram>
</mxfile>
